<svg id="svg" version="1.1" xmlns="http://www.w3.org/2000/svg" xmlns:xlink="http://www.w3.org/1999/xlink" width="512" height="512" viewBox="0, 0, 400,400"><g id="svgg"><path id="path0" d="M0.000 200.000 L 0.000 400.000 200.000 400.000 L 400.000 400.000 400.000 200.000 L 400.000 0.000 200.000 0.000 L 0.000 0.000 0.000 200.000 M307.780 25.593 C 343.491 29.582,369.564 54.460,374.012 88.790 C 374.911 95.724,374.916 302.261,374.017 309.963 C 370.158 343.056,346.622 367.900,313.453 373.892 L 308.398 374.805 200.586 374.805 C 80.719 374.805,90.737 375.016,79.805 372.260 C 50.501 364.874,29.136 339.962,25.803 309.293 C 25.225 303.973,25.229 95.191,25.807 89.926 C 29.597 55.436,55.741 29.996,91.898 25.616 C 98.794 24.780,300.315 24.759,307.780 25.593 M145.561 105.509 C 137.419 113.879,132.171 124.075,130.000 135.742 L 129.128 140.430 128.991 198.828 C 128.846 260.696,128.895 262.850,130.670 271.702 C 136.981 303.175,162.315 324.669,193.229 324.779 C 197.132 324.793,200.424 324.706,200.546 324.584 C 200.667 324.463,200.292 321.958,199.713 319.018 L 198.659 313.672 194.516 313.672 C 169.030 313.672,147.858 295.476,142.474 268.946 L 141.602 264.648 141.602 202.539 C 141.602 134.056,141.448 138.651,143.997 130.980 C 147.244 121.210,154.582 111.738,162.685 106.859 C 163.954 106.094,164.767 105.469,164.491 105.469 C 163.407 105.469,158.228 109.341,155.024 112.547 C 149.097 118.475,144.779 126.074,142.459 134.653 L 141.213 139.258 141.101 200.391 C 140.971 271.195,140.857 269.059,145.348 280.362 C 153.213 300.162,173.310 314.062,194.069 314.063 L 198.255 314.063 199.290 319.043 C 199.859 321.782,200.285 324.064,200.235 324.113 C 200.186 324.163,198.651 324.318,196.824 324.458 L 193.502 324.714 192.736 322.036 L 191.970 319.359 185.951 318.262 C 158.543 313.269,141.401 295.383,136.251 266.406 C 135.238 260.709,134.619 155.863,135.527 143.815 C 136.662 128.746,141.048 118.857,151.241 108.377 L 155.821 103.669 153.203 102.958 C 151.764 102.567,150.259 102.155,149.859 102.043 C 149.322 101.893,148.196 102.801,145.561 105.509 M241.504 124.317 C 241.581 124.548,241.899 124.774,242.210 124.820 C 242.522 124.865,245.482 125.575,248.788 126.396 L 254.799 127.889 255.734 130.003 C 257.304 133.553,258.548 138.461,258.996 142.873 C 259.499 147.832,259.347 257.491,258.834 258.863 C 258.521 259.703,258.471 259.689,256.113 258.124 L 253.711 256.529 253.816 200.526 C 253.929 140.452,253.935 140.645,251.972 134.321 L 251.167 131.727 248.146 130.982 L 245.125 130.236 243.836 127.569 C 243.127 126.102,242.465 124.983,242.366 125.082 C 242.267 125.181,242.700 126.302,243.328 127.573 C 244.761 130.470,245.892 133.942,246.737 138.033 C 247.414 141.309,247.856 229.176,247.288 247.414 C 247.101 253.405,247.154 254.426,247.656 254.597 C 250.549 255.582,254.463 257.446,256.486 258.802 L 258.941 260.448 259.255 258.251 C 259.429 257.043,259.570 230.391,259.570 199.023 C 259.570 134.130,259.780 138.212,256.000 129.666 L 255.039 127.495 250.469 126.391 C 247.955 125.784,244.878 124.974,243.631 124.592 C 242.268 124.174,241.420 124.064,241.504 124.317 M161.078 168.924 C 159.590 169.571,158.752 171.605,159.339 173.147 C 160.282 175.628,163.691 176.214,165.395 174.189 C 167.942 171.161,164.785 167.311,161.078 168.924 M218.980 169.561 C 217.828 170.931,217.725 171.832,218.540 173.410 C 219.912 176.063,224.273 175.430,224.824 172.497 C 225.505 168.866,221.330 166.768,218.980 169.561 M148.941 225.672 C 149.124 250.527,149.190 251.471,151.198 258.020 C 156.383 274.926,173.779 288.281,190.617 288.281 L 193.257 288.281 192.570 285.059 C 192.193 283.286,191.662 280.926,191.389 279.813 L 190.895 277.791 188.904 277.540 C 175.728 275.879,165.459 267.116,161.208 253.906 C 160.429 251.487,160.380 250.289,160.163 228.516 L 159.935 205.664 159.850 227.263 C 159.778 245.677,159.857 249.305,160.384 251.872 C 163.091 265.044,174.163 275.577,187.576 277.740 C 190.309 278.181,190.586 278.310,190.809 279.248 C 190.943 279.812,191.153 280.609,191.275 281.018 C 191.484 281.718,191.325 281.748,188.620 281.516 C 172.545 280.139,159.314 267.452,156.059 250.293 C 155.579 247.760,155.469 243.323,155.469 226.519 C 155.469 207.107,155.427 205.859,154.785 205.851 C 153.682 205.837,150.869 204.420,149.777 203.329 L 148.769 202.320 148.941 225.672 M239.519 225.000 C 239.451 237.354,239.265 248.384,239.104 249.512 C 238.943 250.640,238.940 251.563,239.097 251.563 C 239.706 251.563,239.881 244.313,239.763 223.828 L 239.642 202.539 239.519 225.000 M228.888 227.148 C 228.880 238.750,228.719 249.033,228.533 250.000 C 228.122 252.122,227.328 251.816,233.789 252.025 C 238.303 252.171,238.780 252.138,236.523 251.839 L 233.789 251.477 233.907 228.898 L 234.025 206.318 231.465 206.187 L 228.905 206.055 228.888 227.148 M301.009 254.853 C 297.830 263.175,287.647 264.192,283.108 256.641 C 282.656 255.889,282.259 255.230,282.225 255.177 C 282.067 254.928,277.694 256.457,275.734 257.446 C 270.811 259.930,263.327 266.514,263.861 267.891 C 265.895 273.143,276.953 312.368,276.953 314.331 C 276.953 315.499,276.766 315.601,279.690 312.836 C 289.143 303.898,303.297 299.371,320.831 299.677 L 328.185 299.805 327.988 298.823 C 327.879 298.283,323.999 287.846,319.364 275.629 C 314.730 263.412,310.938 253.351,310.938 253.271 C 310.938 253.191,308.852 253.125,306.303 253.125 L 301.669 253.125 301.009 254.853 M220.860 260.162 C 213.906 261.045,206.478 263.078,206.836 264.001 C 208.331 267.842,216.278 300.007,218.192 309.961 C 218.564 311.895,218.902 313.522,218.943 313.578 C 218.985 313.634,219.738 313.426,220.618 313.116 C 235.953 307.706,255.747 308.007,266.992 313.821 C 268.281 314.488,269.457 315.090,269.606 315.159 C 270.093 315.385,263.689 291.331,259.330 276.563 C 256.626 267.402,256.979 267.908,251.200 264.918 C 243.031 260.691,231.248 258.844,220.860 260.162 M239.463 272.672 C 248.257 273.751,252.344 275.702,252.344 278.820 C 252.344 281.438,250.836 281.699,245.898 279.932 C 241.031 278.191,233.041 277.659,225.563 278.578 C 220.463 279.205,218.912 278.304,219.698 275.170 C 220.287 272.822,230.336 271.552,239.463 272.672 M307.477 272.665 C 309.098 273.115,309.594 273.594,309.963 275.066 C 310.445 276.984,309.303 277.573,304.508 277.883 C 296.429 278.406,288.359 280.679,283.556 283.787 C 279.986 286.096,277.731 285.660,277.736 282.662 C 277.745 277.556,299.165 270.356,307.477 272.665 M200.000 273.434 C 198.767 273.928,198.253 274.355,198.279 274.862 C 198.331 275.917,206.088 312.417,208.828 324.507 L 209.823 328.897 210.869 328.358 C 221.676 322.788,251.200 318.754,265.234 320.929 L 266.992 321.201 265.938 320.354 C 258.575 314.433,238.291 313.986,222.266 319.392 C 213.690 322.285,212.764 321.907,211.577 315.037 C 210.136 306.687,202.606 273.614,202.003 272.986 C 201.868 272.845,200.967 273.047,200.000 273.434 M247.444 289.901 C 254.284 291.258,256.796 292.812,256.569 295.549 C 256.366 298.005,255.114 298.427,251.874 297.131 C 245.757 294.684,236.690 293.983,230.078 295.445 C 225.197 296.525,223.438 295.853,223.438 292.910 C 223.438 289.375,236.522 287.735,247.444 289.901 M314.844 305.740 C 304.834 306.332,296.685 308.762,288.598 313.566 C 285.662 315.310,281.878 318.965,283.792 318.208 C 296.016 313.371,313.497 312.012,329.004 314.693 C 330.855 315.013,330.855 314.973,329.046 309.668 L 327.613 305.469 322.303 305.541 C 319.382 305.581,316.025 305.670,314.844 305.740 " stroke="none" fill="#f6f5ef" fill-rule="evenodd"></path><path id="path1" d="M218.363 39.944 C 215.971 40.746,213.826 43.312,212.821 46.575 L 211.933 49.458 207.431 48.356 C 186.748 43.292,167.933 42.491,156.250 46.178 C 130.461 54.317,120.791 78.929,136.731 95.857 L 139.713 99.023 137.669 101.539 C 130.950 109.810,124.771 122.734,122.579 133.099 C 121.696 137.273,121.688 137.596,121.489 176.354 L 121.289 215.404 119.366 215.285 C 111.671 214.812,106.111 210.544,104.539 203.906 L 103.568 199.805 105.086 198.242 C 110.001 193.182,108.132 185.333,101.367 182.624 C 99.894 182.034,98.972 181.423,98.885 180.979 C 98.550 179.264,90.177 148.150,89.834 147.343 C 89.381 146.278,71.677 124.133,69.995 122.527 C 67.926 120.552,64.859 120.788,63.245 123.047 C 62.552 124.016,57.031 152.753,57.031 155.388 C 57.031 156.036,58.894 164.185,61.172 173.498 C 63.449 182.810,66.964 197.285,68.984 205.664 C 75.337 232.020,76.113 234.382,79.406 237.357 C 83.528 241.081,86.896 241.598,94.660 239.698 C 105.448 237.057,108.801 233.662,108.779 225.398 L 108.770 221.680 111.860 222.721 C 113.559 223.294,116.428 223.983,118.236 224.252 L 121.522 224.741 121.456 242.741 C 121.377 264.323,121.922 269.839,125.200 280.653 C 134.999 312.979,165.157 334.409,198.242 332.556 L 202.539 332.315 203.268 333.970 C 204.744 337.320,207.304 337.745,212.985 335.586 C 232.111 328.316,256.694 325.633,268.591 329.516 C 273.938 331.262,278.665 330.715,281.909 327.976 C 289.320 321.720,312.020 319.292,330.417 322.788 C 338.396 324.304,340.635 320.540,337.446 310.971 L 335.830 306.121 336.511 304.227 C 337.430 301.670,337.982 303.319,323.201 264.522 C 315.454 244.188,316.243 245.119,306.753 245.118 C 300.901 245.117,300.803 245.103,300.314 244.191 C 300.041 243.682,299.066 242.603,298.146 241.794 C 296.696 240.517,296.375 239.931,295.716 237.356 C 292.623 225.262,282.989 214.704,270.833 210.087 L 267.636 208.872 267.487 175.627 C 267.323 138.963,267.288 138.419,264.623 131.340 C 264.100 129.950,263.672 128.746,263.672 128.664 C 263.672 128.583,264.894 128.516,266.387 128.516 C 276.481 128.516,285.192 121.733,287.688 111.930 C 292.437 93.286,271.660 71.706,234.766 56.960 C 232.080 55.886,229.828 54.955,229.762 54.890 C 229.696 54.825,229.934 53.766,230.291 52.537 C 231.224 49.327,230.963 45.151,229.721 43.406 C 227.813 40.727,221.641 38.846,218.363 39.944 M222.436 47.256 C 223.679 47.729,223.419 52.344,222.149 52.344 C 220.516 52.344,219.527 51.392,219.771 50.056 C 220.351 46.884,220.644 46.575,222.436 47.256 M185.938 52.546 C 212.706 55.520,244.378 67.274,262.695 81.034 C 279.560 93.703,285.004 107.938,276.309 116.633 C 270.531 122.412,262.785 121.884,235.742 113.872 C 190.144 100.361,164.905 94.376,149.907 93.516 L 145.322 93.254 143.048 91.001 C 129.337 77.416,141.115 56.180,164.369 52.559 C 168.989 51.840,179.519 51.833,185.938 52.546 M160.742 102.755 C 168.906 103.973,168.528 103.701,164.904 105.748 C 151.392 113.379,143.059 126.991,141.801 143.489 C 141.266 150.492,141.273 254.890,141.808 261.480 C 144.256 291.622,164.886 312.197,194.029 313.561 L 198.800 313.784 199.401 316.560 C 201.416 325.858,201.761 324.847,196.484 325.115 C 161.909 326.871,133.812 301.208,129.213 263.672 C 128.309 256.286,128.500 144.540,129.428 138.477 C 131.586 124.379,138.376 111.150,147.558 103.154 L 149.414 101.537 152.539 101.767 C 154.258 101.894,157.949 102.339,160.742 102.755 M192.017 109.928 C 200.162 112.111,206.847 113.943,223.633 118.594 C 230.641 120.535,236.213 127.407,238.732 137.216 C 239.713 141.035,240.324 181.820,240.058 225.781 C 239.894 252.899,239.892 252.920,238.178 252.577 C 237.528 252.447,234.985 252.226,232.527 252.085 L 228.057 251.830 228.337 250.817 C 228.491 250.260,228.695 239.934,228.790 227.869 L 228.963 205.934 227.767 205.671 C 227.110 205.527,226.471 205.246,226.349 205.048 C 225.511 203.693,225.391 206.341,225.391 226.107 C 225.391 240.436,225.245 248.251,224.950 249.718 L 224.510 251.909 222.314 252.132 C 214.331 252.943,206.671 254.555,202.930 256.210 C 200.489 257.290,199.402 259.275,199.459 262.552 L 199.505 265.143 195.644 266.605 C 191.014 268.358,189.844 269.467,189.844 272.100 C 189.844 274.157,189.761 274.175,185.400 273.059 C 176.552 270.796,168.380 263.324,165.409 254.778 C 163.843 250.276,163.688 247.654,163.680 225.553 L 163.672 204.426 162.012 205.196 L 160.352 205.966 160.567 229.057 C 160.795 253.515,160.734 252.725,162.781 257.617 C 167.166 268.095,177.617 276.083,188.378 277.182 C 191.412 277.492,191.022 276.834,192.595 284.300 C 193.626 289.192,193.902 288.914,188.568 288.354 C 168.167 286.211,152.463 271.057,149.422 250.579 C 148.630 245.248,148.470 150.627,149.240 142.931 C 150.985 125.474,161.861 112.721,178.877 108.178 C 182.388 107.241,181.598 107.136,192.017 109.928 M248.073 125.549 L 254.883 127.270 255.755 128.772 C 256.894 130.733,258.501 135.560,259.279 139.358 C 260.103 143.382,260.520 247.320,259.746 255.566 C 259.222 261.136,259.296 261.046,256.739 259.226 C 254.579 257.688,251.783 256.262,249.023 255.291 L 247.070 254.604 247.191 199.470 C 247.333 134.481,247.423 135.956,242.806 127.063 C 241.882 125.284,241.157 123.828,241.195 123.828 C 241.233 123.828,244.328 124.603,248.073 125.549 M70.508 134.099 C 71.367 135.212,72.120 136.231,72.181 136.363 C 72.317 136.657,67.998 138.051,67.743 137.795 C 67.503 137.555,68.456 132.025,68.732 132.053 C 68.849 132.066,69.648 132.986,70.508 134.099 M79.490 145.714 C 82.859 150.021,82.723 149.439,81.024 152.291 C 79.393 155.028,79.619 154.943,76.788 153.884 C 74.303 152.954,73.671 153.140,72.040 155.279 C 70.814 156.886,70.508 156.913,67.204 155.707 C 64.142 154.589,64.260 154.928,65.213 150.013 C 66.135 145.260,65.732 145.822,68.766 145.052 C 70.122 144.708,72.387 143.936,73.799 143.338 C 75.212 142.739,76.455 142.243,76.563 142.235 C 76.670 142.227,77.987 143.792,79.490 145.714 M221.281 146.224 C 217.299 147.531,215.178 150.720,217.121 152.479 C 218.006 153.280,219.026 153.296,220.838 152.539 C 223.851 151.280,227.815 152.048,231.053 154.518 C 234.484 157.134,236.569 153.148,233.634 149.586 C 231.036 146.434,225.353 144.888,221.281 146.224 M159.570 147.013 C 155.825 148.761,153.507 152.447,154.857 154.508 C 155.730 155.840,156.761 155.714,159.395 153.955 C 162.276 152.031,164.331 151.690,167.802 152.561 C 170.778 153.307,172.089 152.988,172.482 151.423 C 173.505 147.345,165.049 144.456,159.570 147.013 M88.443 169.727 C 90.064 175.957,92.349 185.098,93.521 190.039 C 94.693 194.980,96.427 202.216,97.375 206.118 L 99.097 213.212 95.350 214.261 C 85.981 216.883,79.900 218.313,79.674 217.947 C 79.438 217.565,76.956 207.549,69.709 177.734 C 67.646 169.248,65.869 161.987,65.758 161.599 C 65.588 160.998,65.912 161.071,67.924 162.087 C 71.019 163.649,71.164 163.628,73.676 161.252 L 75.821 159.224 77.657 159.748 C 81.550 160.860,81.736 160.824,83.422 158.613 C 84.855 156.734,84.967 156.665,85.223 157.504 C 85.373 157.996,86.822 163.496,88.443 169.727 M161.046 163.681 C 158.008 164.673,154.399 167.859,152.948 170.829 C 146.986 183.034,159.129 196.832,170.786 191.099 C 186.273 183.482,177.347 158.357,161.046 163.681 M221.220 163.429 C 212.285 166.352,208.205 178.027,213.329 186.011 C 219.282 195.288,231.575 194.267,236.612 184.078 C 242.095 172.988,232.275 159.813,221.220 163.429 M224.121 169.357 C 227.122 172.768,222.319 177.457,219.111 174.249 C 216.561 171.699,218.550 167.618,222.070 168.174 C 222.715 168.275,223.638 168.808,224.121 169.357 M165.264 169.501 C 168.227 172.464,165.108 176.881,161.205 175.251 C 157.556 173.726,158.717 168.359,162.695 168.359 C 163.752 168.359,164.419 168.656,165.264 169.501 M179.576 192.191 C 176.821 194.359,177.673 202.622,181.219 208.108 C 188.120 218.784,204.070 218.030,210.066 206.743 C 212.642 201.895,213.427 194.250,211.541 192.365 C 210.288 191.112,208.883 191.130,204.039 192.465 C 198.676 193.942,192.526 193.932,187.007 192.438 C 182.435 191.201,180.900 191.150,179.576 192.191 M200.586 203.340 C 203.694 204.199,204.425 204.870,203.724 206.225 C 200.977 211.537,191.290 212.159,187.339 207.278 C 184.428 203.680,192.805 201.190,200.586 203.340 M270.058 218.903 C 277.235 222.077,283.663 228.642,286.414 235.610 C 288.031 239.706,288.064 240.124,286.821 240.775 C 285.343 241.548,283.445 243.630,282.505 245.508 C 281.821 246.873,281.474 247.129,279.765 247.531 C 277.012 248.178,272.486 250.047,269.727 251.675 C 268.438 252.435,267.375 253.029,267.365 252.994 C 267.264 252.618,267.696 217.969,267.802 217.969 C 267.882 217.969,268.897 218.389,270.058 218.903 M101.010 222.266 C 102.209 225.591,101.378 229.157,99.048 230.684 C 96.313 232.476,87.472 234.003,85.558 233.014 C 83.381 231.888,80.494 225.656,81.900 225.117 C 83.213 224.613,99.455 220.752,99.965 220.822 C 100.269 220.864,100.739 221.514,101.010 222.266 M310.631 253.223 C 310.975 253.491,313.313 259.160,315.827 265.820 C 318.342 272.480,322.225 282.730,324.457 288.597 C 326.689 294.464,328.516 299.408,328.516 299.584 C 328.516 299.760,325.835 299.815,322.559 299.705 C 304.677 299.109,289.168 303.921,279.838 312.962 L 277.058 315.655 276.799 313.980 C 276.452 311.732,269.706 287.431,266.521 276.953 C 265.116 272.334,263.885 268.185,263.785 267.734 C 263.380 265.906,272.912 258.154,277.795 256.339 C 281.960 254.792,282.191 254.811,283.359 256.803 C 287.466 263.812,297.043 263.069,300.552 255.469 C 301.207 254.051,301.846 253.234,302.432 253.066 C 304.079 252.595,309.973 252.708,310.631 253.223 M237.762 260.350 C 244.250 261.402,251.085 264.057,255.453 267.221 C 256.842 268.227,257.110 268.722,258.230 272.351 C 261.855 284.091,270.153 314.743,269.801 315.095 C 269.697 315.199,268.407 314.679,266.935 313.938 C 255.781 308.329,237.703 307.885,222.292 312.841 L 218.835 313.953 218.173 310.590 C 216.462 301.896,209.227 271.968,207.562 266.696 C 206.405 263.032,206.305 263.185,210.547 262.090 C 219.567 259.762,230.016 259.094,237.762 260.350 M155.321 277.227 C 163.521 287.933,177.916 294.909,191.830 294.920 L 194.793 294.922 195.954 300.488 L 197.114 306.055 194.553 306.173 C 177.054 306.983,158.573 293.403,152.181 275.039 C 150.477 270.144,150.426 269.446,151.976 272.259 C 152.625 273.438,154.131 275.673,155.321 277.227 M203.253 276.465 C 204.394 280.723,210.432 307.995,211.705 314.640 C 213.084 321.836,213.693 322.122,221.801 319.382 C 238.597 313.703,257.322 313.952,265.620 319.963 C 267.744 321.502,267.715 321.511,262.891 320.872 C 250.024 319.169,231.008 321.695,214.287 327.329 C 211.725 328.193,209.602 328.857,209.569 328.805 C 209.537 328.753,209.117 326.865,208.635 324.609 C 208.154 322.354,206.986 316.992,206.039 312.695 C 205.093 308.398,203.073 298.906,201.550 291.602 C 200.027 284.297,198.542 277.388,198.250 276.248 L 197.719 274.176 198.762 273.768 C 199.335 273.544,200.156 273.214,200.586 273.034 C 202.049 272.420,202.233 272.657,203.253 276.465 M223.922 273.032 C 220.178 273.617,218.624 275.560,220.212 277.671 C 221.117 278.875,221.420 278.895,228.126 278.180 C 234.987 277.449,242.971 278.329,247.820 280.351 C 252.535 282.318,254.453 277.641,249.846 275.411 C 245.202 273.162,231.268 271.884,223.922 273.032 M296.875 273.231 C 286.409 274.998,278.125 279.157,278.125 282.643 C 278.125 285.606,279.920 286.169,282.733 284.088 C 287.243 280.752,298.106 277.734,305.605 277.734 C 308.523 277.734,309.766 277.036,309.766 275.397 C 309.766 272.715,304.838 271.887,296.875 273.231 M232.031 289.289 C 227.393 290.111,226.237 290.383,225.281 290.877 C 223.666 291.712,223.215 292.969,223.993 294.471 C 224.812 296.056,225.772 296.247,229.102 295.489 C 235.924 293.936,245.805 294.468,251.253 296.682 C 255.696 298.488,258.501 296.347,255.860 293.165 C 253.769 290.645,238.446 288.153,232.031 289.289 M327.642 305.566 C 328.213 306.274,331.089 314.745,330.842 314.991 C 330.727 315.106,328.971 314.906,326.938 314.548 C 316.098 312.636,297.306 313.876,287.543 317.146 C 282.106 318.967,282.196 319.004,285.031 316.133 C 291.153 309.933,303.420 306.038,318.555 305.489 C 322.852 305.333,326.565 305.177,326.808 305.142 C 327.050 305.107,327.425 305.298,327.642 305.566 " stroke="none" fill="#050504" fill-rule="evenodd"></path><path id="path2" d="M93.945 25.432 C 56.409 29.007,29.036 55.505,25.786 91.413 C 25.467 94.934,25.378 125.864,25.466 202.734 L 25.588 309.180 26.504 314.063 C 32.706 347.119,56.308 369.461,90.039 374.204 C 94.403 374.818,306.252 374.823,310.742 374.210 C 340.880 370.092,364.570 349.344,372.060 320.508 C 374.580 310.804,374.414 319.348,374.414 199.219 L 374.414 90.430 373.500 85.352 C 367.791 53.655,344.495 31.659,310.547 25.911 C 306.022 25.145,101.705 24.693,93.945 25.432 M226.077 40.622 C 230.708 42.613,232.061 46.150,230.488 52.148 C 230.093 53.652,229.796 54.890,229.827 54.900 C 252.872 61.917,279.448 81.133,285.955 95.485 C 293.114 111.273,283.172 128.516,266.909 128.516 C 263.894 128.516,263.616 128.578,263.885 129.199 C 267.319 137.102,267.312 137.016,267.476 175.042 L 267.621 208.874 269.082 209.311 C 281.346 212.986,292.557 224.702,295.795 237.227 C 296.496 239.940,296.846 240.643,297.889 241.434 C 298.577 241.956,299.533 242.954,300.011 243.652 L 300.882 244.922 306.242 244.922 C 311.889 244.922,313.476 245.231,315.486 246.722 C 316.977 247.828,317.118 248.161,325.596 270.508 C 338.186 303.695,337.787 302.443,336.480 304.657 C 335.875 305.680,335.924 305.950,337.682 311.329 C 340.034 318.527,339.654 320.839,335.808 322.707 L 334.109 323.533 329.261 322.715 C 310.027 319.469,290.119 321.735,281.854 328.111 C 278.307 330.847,273.795 331.318,268.301 329.525 C 256.717 325.743,231.055 328.644,212.722 335.808 C 207.568 337.822,204.583 337.268,203.206 334.043 L 202.597 332.617 194.756 332.577 C 160.585 332.402,132.844 310.697,124.165 277.344 C 121.670 267.757,121.392 264.602,121.197 243.702 L 121.020 224.708 118.811 224.452 C 116.322 224.164,111.244 222.825,109.766 222.066 L 108.789 221.565 108.789 225.529 C 108.789 233.782,105.429 237.171,94.603 239.838 C 84.967 242.212,78.603 239.607,75.766 232.128 C 74.178 227.942,57.350 159.431,57.123 156.230 C 56.935 153.575,62.177 124.293,63.090 122.900 C 64.200 121.207,66.851 120.601,68.957 121.561 C 69.534 121.824,74.321 127.432,79.904 134.387 L 89.827 146.746 92.731 157.455 C 94.328 163.345,96.471 171.284,97.493 175.098 C 98.902 180.351,99.502 182.033,99.969 182.040 C 107.013 182.138,110.511 193.989,104.898 198.742 L 103.643 199.805 104.707 204.098 C 106.326 210.633,112.556 215.234,119.784 215.234 L 121.045 215.234 121.204 177.051 C 121.358 139.896,121.385 138.747,122.207 134.418 C 124.209 123.867,129.714 111.874,137.025 102.132 L 139.514 98.817 137.138 96.419 C 121.120 80.252,129.392 55.754,153.873 46.855 C 166.237 42.361,186.123 42.884,207.493 48.266 C 211.924 49.382,212.109 49.398,212.109 48.647 C 212.109 41.985,219.446 37.769,226.077 40.622 M178.711 108.332 C 163.090 112.672,152.825 123.660,149.727 139.360 C 149.149 142.291,148.412 191.016,148.947 191.016 C 149.052 191.016,149.904 190.581,150.839 190.049 C 151.774 189.517,153.271 188.972,154.167 188.838 L 155.794 188.593 154.493 186.888 C 148.069 178.473,151.802 166.286,161.682 163.414 C 175.757 159.322,185.110 178.862,173.957 189.055 C 171.953 190.887,168.501 192.578,166.768 192.578 C 166.078 192.578,166.043 192.679,166.468 193.457 C 167.772 195.846,166.709 201.806,164.677 203.492 C 163.637 204.355,163.763 248.315,164.818 252.439 C 167.569 263.196,177.317 272.017,188.203 273.599 L 189.882 273.843 189.655 272.566 C 189.186 269.935,191.253 268.003,196.553 266.119 L 199.551 265.053 199.337 263.244 C 198.851 259.145,200.667 256.679,205.206 255.271 C 209.551 253.923,217.057 252.438,221.151 252.117 L 224.529 251.852 224.960 248.957 C 225.232 247.130,225.391 238.450,225.391 225.428 L 225.391 204.795 224.220 203.321 C 222.367 200.990,221.689 196.123,222.828 193.328 C 223.020 192.857,222.683 192.595,221.403 192.220 C 205.826 187.657,208.693 163.106,224.805 163.090 C 236.860 163.077,242.948 177.926,234.727 187.289 C 233.584 188.591,233.601 189.063,234.791 189.063 C 235.163 189.063,236.463 189.586,237.679 190.226 L 239.890 191.389 239.738 166.300 C 239.604 144.099,239.507 140.874,238.901 138.281 C 237.449 132.076,234.160 126.058,229.980 121.957 L 227.874 119.891 217.355 116.963 C 205.138 113.562,184.234 107.929,182.813 107.653 C 182.275 107.549,180.430 107.855,178.711 108.332 M169.143 146.726 C 173.397 148.428,173.919 153.568,169.777 152.962 C 163.312 152.017,162.309 152.127,159.381 154.098 C 155.194 156.915,152.742 154.558,155.438 150.306 C 157.976 146.304,164.094 144.706,169.143 146.726 M228.603 146.112 C 231.672 146.964,235.156 150.551,235.156 152.859 C 235.156 155.517,233.121 156.157,230.589 154.295 C 227.526 152.042,224.000 151.381,221.229 152.539 C 218.410 153.717,216.406 152.997,216.406 150.806 C 216.406 147.180,223.131 144.592,228.603 146.112 M187.500 192.383 C 192.705 193.731,198.437 193.731,203.750 192.383 C 211.739 190.356,213.480 191.797,212.439 199.571 C 209.668 220.251,182.607 221.558,178.296 201.220 C 176.419 192.362,178.755 190.118,187.500 192.383 M267.578 233.744 C 267.578 242.410,267.464 250.335,267.324 251.355 L 267.070 253.209 268.759 252.143 C 271.564 250.372,275.523 248.610,278.868 247.643 C 280.608 247.141,282.031 246.529,282.031 246.283 C 282.031 245.316,284.510 242.172,286.105 241.115 L 287.790 239.999 287.124 237.871 C 284.406 229.186,277.235 221.660,268.522 218.347 L 267.578 217.988 267.578 233.744 M151.172 271.527 C 151.172 272.431,153.791 279.117,155.235 281.898 C 162.678 296.235,179.011 306.250,194.950 306.250 C 197.226 306.250,197.160 306.732,195.776 300.195 L 194.701 295.117 190.026 294.874 C 174.721 294.079,161.167 286.551,153.206 274.423 C 152.087 272.719,151.172 271.416,151.172 271.527 " stroke="none" fill="#52bc23" fill-rule="evenodd"></path><path id="path3" d="M220.358 47.754 C 219.211 50.843,219.797 52.344,222.149 52.344 C 223.419 52.344,223.679 47.729,222.436 47.256 C 220.992 46.707,220.722 46.772,220.358 47.754 M164.609 52.522 C 140.375 56.287,128.815 78.341,143.999 91.840 C 145.570 93.237,145.630 93.254,150.039 93.521 C 165.308 94.444,188.582 99.969,235.742 113.865 C 265.872 122.743,274.017 122.648,278.655 113.366 C 284.445 101.779,274.573 87.120,252.273 74.191 C 226.115 59.025,186.223 49.164,164.609 52.522 M239.993 196.680 C 239.994 199.258,240.057 200.262,240.133 198.910 C 240.210 197.559,240.209 195.450,240.132 194.223 C 240.055 192.996,239.992 194.102,239.993 196.680 M90.868 222.849 C 86.168 224.007,82.096 225.042,81.819 225.148 C 80.492 225.657,83.477 231.937,85.558 233.014 C 88.661 234.618,98.989 231.754,100.798 228.787 C 102.064 226.711,101.471 221.033,99.965 220.821 C 99.662 220.778,95.568 221.691,90.868 222.849 " stroke="none" fill="#cb4023" fill-rule="evenodd"></path><path id="path4" d="M230.966 48.047 C 230.966 49.014,231.042 49.409,231.135 48.926 C 231.228 48.442,231.228 47.651,231.135 47.168 C 231.042 46.685,230.966 47.080,230.966 48.047 M68.543 133.691 C 68.729 134.912,68.687 135.197,68.383 134.766 C 68.075 134.329,68.034 134.528,68.221 135.547 C 68.520 137.179,68.352 136.956,69.531 137.282 C 70.318 137.499,70.394 137.463,69.922 137.101 C 69.438 136.729,69.489 136.684,70.215 136.844 C 70.699 136.950,71.008 136.896,70.901 136.723 C 70.795 136.551,70.970 136.309,71.291 136.186 C 71.612 136.063,71.875 136.162,71.875 136.405 C 71.875 136.649,71.988 136.736,72.126 136.598 C 72.465 136.259,71.481 135.112,71.069 135.367 C 70.763 135.556,69.712 134.020,69.856 133.594 C 69.892 133.486,69.702 133.394,69.434 133.389 C 69.165 133.384,68.970 133.076,69.000 132.705 C 69.029 132.335,68.882 132.031,68.672 132.031 C 68.444 132.031,68.392 132.699,68.543 133.691 M121.094 179.570 C 120.986 199.379,121.031 215.453,121.193 215.291 C 121.356 215.129,121.444 198.922,121.389 179.275 L 121.289 143.555 121.094 179.570 M141.497 145.313 C 141.497 146.064,141.577 146.372,141.676 145.996 C 141.774 145.620,141.774 145.005,141.676 144.629 C 141.577 144.253,141.497 144.561,141.497 145.313 M267.286 146.289 C 267.290 147.148,267.370 147.454,267.464 146.968 C 267.557 146.482,267.554 145.779,267.456 145.406 C 267.358 145.032,267.282 145.430,267.286 146.289 M148.919 146.484 C 148.919 147.236,148.999 147.544,149.097 147.168 C 149.196 146.792,149.196 146.177,149.097 145.801 C 148.999 145.425,148.919 145.732,148.919 146.484 M163.969 145.979 C 164.455 146.073,165.158 146.069,165.532 145.972 C 165.905 145.874,165.508 145.797,164.648 145.802 C 163.789 145.806,163.483 145.886,163.969 145.979 M259.864 148.633 C 259.868 149.492,259.948 149.798,260.042 149.312 C 260.135 148.826,260.132 148.123,260.034 147.749 C 259.936 147.376,259.860 147.773,259.864 148.633 M164.160 152.222 C 164.536 152.321,165.151 152.321,165.527 152.222 C 165.903 152.124,165.596 152.044,164.844 152.044 C 164.092 152.044,163.784 152.124,164.160 152.222 M238.380 177.148 C 238.384 178.008,238.464 178.313,238.558 177.827 C 238.651 177.342,238.647 176.638,238.550 176.265 C 238.452 175.892,238.375 176.289,238.380 177.148 M239.934 191.016 C 239.934 191.768,240.015 192.075,240.113 191.699 C 240.211 191.323,240.211 190.708,240.113 190.332 C 240.015 189.956,239.934 190.264,239.934 191.016 M194.238 193.644 C 195.044 193.728,196.362 193.728,197.168 193.644 C 197.974 193.560,197.314 193.491,195.703 193.491 C 194.092 193.491,193.433 193.560,194.238 193.644 M148.582 197.656 C 148.582 199.912,148.647 200.835,148.725 199.707 C 148.804 198.579,148.804 196.733,148.725 195.605 C 148.647 194.478,148.582 195.400,148.582 197.656 M240.026 224.023 C 240.026 236.055,240.076 241.033,240.136 235.086 C 240.197 229.140,240.197 219.296,240.137 213.211 C 240.076 207.127,240.026 211.992,240.026 224.023 M163.854 225.977 C 163.854 238.008,163.904 242.986,163.965 237.039 C 164.025 231.093,164.025 221.249,163.965 215.164 C 163.904 209.080,163.854 213.945,163.854 225.977 M160.338 226.758 C 160.338 238.145,160.388 242.746,160.449 236.984 C 160.510 231.222,160.510 221.906,160.449 216.281 C 160.388 210.657,160.338 215.371,160.338 226.758 M194.043 215.901 C 194.526 215.994,195.317 215.994,195.801 215.901 C 196.284 215.808,195.889 215.731,194.922 215.731 C 193.955 215.731,193.560 215.808,194.043 215.901 M121.269 237.891 C 121.269 245.303,121.322 248.335,121.386 244.629 C 121.450 240.923,121.450 234.858,121.386 231.152 C 121.322 227.446,121.269 230.479,121.269 237.891 M267.278 249.609 C 267.278 250.361,267.359 250.669,267.457 250.293 C 267.555 249.917,267.555 249.302,267.457 248.926 C 267.359 248.550,267.278 248.857,267.278 249.609 M259.856 252.344 C 259.856 253.096,259.937 253.403,260.035 253.027 C 260.133 252.651,260.133 252.036,260.035 251.660 C 259.937 251.284,259.856 251.592,259.856 252.344 M121.192 257.227 C 121.197 258.086,121.277 258.392,121.370 257.906 C 121.463 257.420,121.460 256.717,121.362 256.343 C 121.264 255.970,121.188 256.367,121.192 257.227 M231.925 272.548 C 232.618 272.634,233.849 272.635,234.659 272.551 C 235.470 272.466,234.902 272.396,233.398 272.394 C 231.895 272.392,231.231 272.461,231.925 272.548 M303.418 272.541 C 303.901 272.634,304.692 272.634,305.176 272.541 C 305.659 272.448,305.264 272.372,304.297 272.372 C 303.330 272.372,302.935 272.448,303.418 272.541 M243.848 309.264 C 244.438 309.354,245.405 309.354,245.996 309.264 C 246.587 309.175,246.104 309.101,244.922 309.101 C 243.740 309.101,243.257 309.175,243.848 309.264 M310.449 313.569 C 311.577 313.648,313.423 313.648,314.551 313.569 C 315.679 313.490,314.756 313.426,312.500 313.426 C 310.244 313.426,309.321 313.490,310.449 313.569 M197.563 332.698 C 198.049 332.792,198.752 332.788,199.126 332.690 C 199.499 332.592,199.102 332.516,198.242 332.520 C 197.383 332.525,197.077 332.605,197.563 332.698 " stroke="none" fill="#466c32" fill-rule="evenodd"></path><path id="path5" d="M149.977 101.892 C 150.286 102.109,151.730 102.595,153.185 102.973 L 155.831 103.659 151.246 108.372 C 141.047 118.857,136.662 128.744,135.527 143.815 C 134.619 155.863,135.238 260.709,136.251 266.406 C 141.401 295.383,158.543 313.269,185.951 318.262 L 191.970 319.359 192.736 322.036 L 193.502 324.714 196.831 324.458 C 199.954 324.218,200.769 323.885,200.769 322.852 C 200.769 322.637,200.582 322.725,200.352 323.047 C 200.040 323.486,199.990 323.241,200.152 322.070 C 200.313 320.910,200.262 320.659,199.957 321.094 C 199.651 321.529,199.600 321.278,199.761 320.117 C 199.892 319.176,199.845 318.768,199.643 319.092 C 199.419 319.450,199.141 318.698,198.810 316.846 L 198.312 314.063 194.328 314.063 C 189.569 314.063,186.434 313.700,187.179 313.235 C 187.468 313.055,187.023 313.021,186.170 313.158 C 185.218 313.311,184.733 313.260,184.880 313.022 C 185.020 312.795,184.613 312.703,183.866 312.794 C 182.868 312.915,182.735 312.857,183.203 312.502 C 183.683 312.138,183.637 312.101,182.943 312.295 C 181.824 312.608,180.015 312.138,180.336 311.617 C 180.488 311.371,180.400 311.324,180.116 311.500 C 179.510 311.874,177.634 311.416,177.914 310.962 C 178.031 310.774,177.747 310.719,177.283 310.840 C 176.655 311.004,176.521 310.930,176.757 310.548 C 176.968 310.207,176.922 310.130,176.619 310.316 C 175.981 310.711,174.543 310.189,174.859 309.677 C 175.016 309.424,174.938 309.367,174.666 309.535 C 174.073 309.902,172.579 309.425,172.866 308.961 C 172.988 308.763,172.787 308.718,172.417 308.860 C 171.965 309.033,171.838 308.970,172.027 308.665 C 172.215 308.360,172.088 308.296,171.636 308.469 C 171.184 308.643,171.057 308.579,171.245 308.274 C 171.434 307.969,171.306 307.905,170.855 308.079 C 170.403 308.252,170.276 308.188,170.464 307.883 C 170.653 307.578,170.525 307.515,170.073 307.688 C 169.583 307.876,169.489 307.807,169.723 307.428 C 169.935 307.084,169.892 307.004,169.592 307.189 C 169.037 307.532,167.471 306.499,167.874 306.055 C 168.033 305.878,167.945 305.860,167.676 306.015 C 167.102 306.345,165.496 305.338,165.920 304.913 C 166.080 304.753,166.035 304.658,165.820 304.701 C 165.097 304.847,164.653 304.674,163.672 303.864 C 163.135 303.420,162.942 303.188,163.244 303.347 C 163.597 303.533,163.697 303.482,163.524 303.202 C 163.377 302.964,163.026 302.857,162.745 302.965 C 162.464 303.072,161.987 302.855,161.684 302.482 C 161.213 301.902,161.213 301.852,161.681 302.134 C 162.057 302.360,162.141 302.320,161.947 302.007 C 161.792 301.756,161.492 301.656,161.281 301.787 C 160.711 302.139,153.382 294.673,153.736 294.100 C 153.909 293.820,153.863 293.731,153.620 293.881 C 153.068 294.222,152.205 293.119,152.566 292.535 C 152.744 292.246,152.690 292.169,152.424 292.333 C 151.920 292.645,151.066 291.266,151.479 290.809 C 151.632 290.639,151.538 290.626,151.270 290.781 C 150.807 291.047,150.586 290.548,150.768 289.648 C 150.811 289.434,150.716 289.389,150.556 289.548 C 150.131 289.973,149.123 288.367,149.454 287.792 C 149.608 287.524,149.590 287.435,149.414 287.595 C 148.970 287.997,147.937 286.432,148.280 285.876 C 148.465 285.577,148.385 285.533,148.041 285.746 C 147.662 285.980,147.592 285.886,147.781 285.395 C 147.954 284.944,147.890 284.816,147.585 285.005 C 147.280 285.193,147.217 285.066,147.390 284.614 C 147.532 284.245,147.494 284.039,147.306 284.154 C 146.833 284.447,145.952 282.187,146.312 281.604 C 146.512 281.280,146.441 281.231,146.088 281.449 C 145.709 281.683,145.639 281.589,145.828 281.098 C 146.000 280.650,145.937 280.520,145.637 280.705 C 145.333 280.893,145.260 280.712,145.410 280.139 C 145.531 279.675,145.485 279.385,145.308 279.495 C 144.871 279.765,143.620 275.902,143.905 275.160 C 144.050 274.783,143.971 274.668,143.689 274.843 C 143.377 275.036,143.324 274.782,143.510 273.984 C 143.716 273.100,143.678 272.980,143.338 273.438 C 143.001 273.892,142.954 273.717,143.131 272.656 C 143.275 271.792,143.231 271.488,143.011 271.829 C 142.557 272.535,142.021 269.539,142.377 268.278 C 142.582 267.549,142.546 267.492,142.181 267.969 C 141.832 268.425,141.777 268.122,141.935 266.602 C 142.058 265.424,142.013 264.959,141.823 265.430 C 141.086 267.253,140.974 256.689,141.125 199.414 C 141.275 142.627,141.396 135.861,142.237 137.167 C 142.443 137.487,142.476 137.170,142.321 136.365 C 142.156 135.508,142.206 135.122,142.461 135.279 C 142.705 135.430,142.781 135.133,142.660 134.500 C 142.527 133.801,142.605 133.564,142.908 133.751 C 143.190 133.926,143.268 133.811,143.123 133.433 C 142.797 132.583,144.111 128.842,144.624 129.159 C 144.873 129.313,144.929 129.233,144.762 128.963 C 144.395 128.370,144.872 126.876,145.336 127.163 C 145.533 127.285,145.579 127.083,145.437 126.714 C 145.264 126.262,145.327 126.135,145.632 126.323 C 145.937 126.512,146.001 126.384,145.828 125.933 C 145.654 125.481,145.718 125.354,146.023 125.542 C 146.328 125.731,146.392 125.603,146.218 125.152 C 146.045 124.700,146.109 124.572,146.414 124.761 C 146.718 124.949,146.782 124.822,146.609 124.370 C 146.435 123.919,146.499 123.791,146.804 123.980 C 147.109 124.168,147.173 124.041,146.999 123.589 C 146.826 123.137,146.890 123.010,147.195 123.198 C 147.500 123.387,147.563 123.259,147.390 122.808 C 147.202 122.317,147.271 122.223,147.650 122.457 C 147.994 122.670,148.074 122.626,147.889 122.327 C 147.555 121.786,148.578 120.193,148.993 120.608 C 149.153 120.768,149.248 120.723,149.205 120.508 C 149.024 119.608,149.245 119.110,149.707 119.376 C 149.976 119.530,150.070 119.517,149.916 119.347 C 149.535 118.926,150.338 117.499,150.796 117.783 C 150.998 117.907,151.065 117.754,150.945 117.443 C 150.732 116.886,151.378 116.229,152.148 116.217 C 152.363 116.214,152.539 116.006,152.539 115.755 C 152.539 115.015,154.274 112.889,154.795 112.991 C 155.058 113.043,155.238 112.891,155.194 112.653 C 155.085 112.056,157.164 110.125,158.058 109.994 C 158.460 109.935,158.790 109.640,158.790 109.338 C 158.791 109.036,159.086 108.787,159.446 108.784 C 159.806 108.781,160.245 108.621,160.422 108.428 C 160.607 108.226,160.495 108.199,160.156 108.365 C 159.834 108.523,159.904 108.381,160.311 108.049 C 160.719 107.718,161.207 107.542,161.395 107.659 C 161.584 107.775,161.690 107.638,161.631 107.353 C 161.571 107.067,161.827 106.860,162.203 106.889 C 162.589 106.920,162.772 106.765,162.627 106.530 C 162.468 106.273,162.616 106.211,163.017 106.365 C 163.399 106.511,163.624 106.432,163.570 106.171 C 163.518 105.929,164.010 105.613,164.662 105.471 C 167.956 104.750,167.575 103.571,163.985 103.378 C 162.821 103.315,161.649 103.128,161.381 102.962 C 161.112 102.796,160.474 102.766,159.963 102.894 C 159.451 103.023,158.917 102.941,158.776 102.713 C 158.629 102.475,158.038 102.404,157.394 102.545 C 156.775 102.681,156.045 102.647,155.771 102.470 C 155.497 102.293,154.570 102.133,153.711 102.115 C 152.852 102.097,151.533 101.950,150.781 101.789 C 149.819 101.583,149.581 101.614,149.977 101.892 M241.895 125.158 C 241.774 125.352,241.870 125.391,242.108 125.245 C 242.642 124.915,243.497 126.414,243.122 127.022 C 242.941 127.313,243.025 127.355,243.365 127.145 C 243.744 126.911,243.814 127.004,243.626 127.495 C 243.484 127.865,243.529 128.066,243.726 127.944 C 244.197 127.653,244.663 129.149,244.299 129.782 C 244.143 130.052,244.159 130.143,244.335 129.984 C 244.511 129.825,244.847 129.845,245.081 130.028 C 245.316 130.212,246.781 130.668,248.337 131.043 L 251.166 131.723 251.972 134.319 C 253.935 140.645,253.929 140.445,253.816 200.577 C 253.730 246.578,253.803 256.667,254.224 256.829 C 254.506 256.937,254.611 257.230,254.457 257.479 C 254.285 257.757,254.346 257.828,254.613 257.663 C 254.994 257.428,258.203 259.200,258.203 259.645 C 258.203 259.737,258.000 259.686,257.752 259.533 C 257.470 259.359,257.407 259.426,257.584 259.712 C 257.951 260.305,258.586 259.906,258.621 259.059 C 258.643 258.523,258.710 258.545,258.975 259.180 C 259.179 259.669,259.239 259.086,259.136 257.617 C 259.011 255.839,259.069 255.462,259.375 256.055 C 259.735 256.754,259.758 256.732,259.589 255.844 C 259.486 255.298,259.383 228.940,259.361 197.271 C 259.334 158.963,259.190 139.880,258.932 140.256 C 258.650 140.665,258.582 140.424,258.682 139.383 C 258.763 138.544,258.667 138.041,258.451 138.174 C 258.228 138.312,258.183 137.875,258.337 137.072 C 258.530 136.068,258.490 135.885,258.172 136.328 C 257.840 136.790,257.787 136.689,257.921 135.852 C 258.014 135.267,257.959 134.871,257.798 134.970 C 257.397 135.218,256.942 133.272,257.275 132.734 C 257.448 132.454,257.362 132.413,257.030 132.618 C 256.648 132.854,256.574 132.720,256.738 132.092 C 256.859 131.628,256.812 131.340,256.632 131.450 C 256.191 131.723,255.738 130.201,256.090 129.631 C 256.277 129.327,256.199 129.282,255.853 129.496 C 255.475 129.730,255.405 129.636,255.593 129.145 C 255.767 128.694,255.703 128.566,255.398 128.755 C 255.096 128.941,255.028 128.819,255.193 128.389 C 255.329 128.034,255.315 127.762,255.162 127.785 C 254.334 127.909,253.496 127.691,253.676 127.400 C 253.790 127.216,253.422 127.154,252.860 127.262 C 252.161 127.395,251.924 127.317,252.111 127.014 C 252.287 126.729,252.168 126.654,251.778 126.804 C 251.029 127.091,245.639 125.811,245.889 125.406 C 245.989 125.245,245.610 125.201,245.047 125.308 C 244.485 125.416,244.122 125.347,244.241 125.154 C 244.359 124.962,243.929 124.805,243.285 124.805 C 242.640 124.805,242.015 124.964,241.895 125.158 M68.750 132.649 C 68.750 132.774,69.371 133.634,70.129 134.560 L 71.509 136.243 70.266 136.676 C 68.338 137.348,68.246 137.272,68.547 135.254 C 68.912 132.799,68.529 133.233,68.064 135.801 L 67.699 137.813 69.689 137.226 C 72.262 136.467,72.209 136.656,70.480 134.388 C 69.004 132.454,68.750 132.198,68.750 132.649 M128.705 201.563 C 128.705 230.674,128.752 242.583,128.809 228.027 C 128.865 213.472,128.865 189.653,128.809 175.098 C 128.752 160.542,128.705 172.451,128.705 201.563 M247.416 154.688 C 247.416 157.373,247.479 158.472,247.555 157.129 C 247.631 155.786,247.631 153.589,247.555 152.246 C 247.479 150.903,247.416 152.002,247.416 154.688 M259.955 200.586 C 259.955 228.516,260.002 239.884,260.059 225.849 C 260.115 211.813,260.115 188.962,260.059 175.067 C 260.002 161.173,259.955 172.656,259.955 200.586 M247.408 166.211 C 247.409 168.359,247.475 169.188,247.554 168.053 C 247.633 166.918,247.632 165.160,247.552 164.147 C 247.472 163.134,247.407 164.063,247.408 166.211 M247.420 180.273 C 247.420 183.281,247.482 184.460,247.556 182.893 C 247.630 181.326,247.630 178.865,247.555 177.424 C 247.480 175.984,247.419 177.266,247.420 180.273 M247.442 199.609 C 247.442 207.236,247.494 210.356,247.558 206.543 C 247.622 202.729,247.622 196.489,247.558 192.676 C 247.494 188.862,247.442 191.982,247.442 199.609 M238.546 203.829 C 238.155 204.261,236.969 204.988,235.910 205.443 L 233.984 206.272 233.984 227.105 C 233.984 238.563,233.873 248.753,233.736 249.750 L 233.488 251.563 235.005 251.590 C 236.205 251.612,236.359 251.687,235.742 251.949 C 235.258 252.155,235.763 252.196,237.073 252.056 C 238.619 251.890,239.110 251.951,238.905 252.282 C 238.752 252.531,238.812 252.734,239.039 252.734 C 239.267 252.734,239.453 252.471,239.453 252.148 C 239.453 251.826,239.307 251.563,239.129 251.563 C 238.951 251.563,238.953 250.464,239.133 249.120 C 239.863 243.671,239.336 202.957,238.546 203.829 M157.324 206.146 L 155.469 206.293 155.469 226.736 C 155.469 243.347,155.579 247.763,156.059 250.293 C 159.297 267.359,172.425 280.025,188.417 281.511 C 190.492 281.704,191.169 281.637,191.438 281.212 C 191.932 280.431,191.869 279.765,191.367 280.469 C 191.052 280.911,191.006 280.720,191.178 279.688 C 191.339 278.717,191.294 278.490,191.021 278.906 C 190.689 279.413,190.636 279.403,190.631 278.837 C 190.626 278.335,190.112 278.117,188.437 277.908 C 186.905 277.716,186.407 277.525,186.777 277.268 C 187.142 277.015,187.031 276.979,186.417 277.152 C 185.223 277.488,183.125 277.005,183.455 276.470 C 183.613 276.215,183.530 276.165,183.241 276.344 C 182.553 276.769,180.770 276.241,181.099 275.709 C 181.266 275.440,181.195 275.379,180.916 275.551 C 180.323 275.917,178.829 275.441,179.116 274.976 C 179.238 274.779,179.037 274.734,178.667 274.876 C 178.215 275.049,178.088 274.985,178.277 274.680 C 178.465 274.375,178.338 274.312,177.886 274.485 C 177.395 274.673,177.301 274.604,177.535 274.225 C 177.748 273.881,177.704 273.801,177.405 273.986 C 176.922 274.284,175.249 273.319,175.614 272.953 C 175.735 272.833,175.514 272.761,175.124 272.793 C 174.733 272.825,174.451 272.653,174.496 272.409 C 174.542 272.166,174.282 271.990,173.920 272.019 C 173.558 272.047,173.257 271.823,173.252 271.522 C 173.246 271.220,172.892 270.921,172.463 270.859 C 171.498 270.717,166.650 265.789,166.968 265.273 C 167.096 265.067,166.994 264.771,166.743 264.615 C 166.440 264.428,166.381 264.517,166.570 264.881 C 166.727 265.183,166.584 265.096,166.252 264.689 C 165.921 264.281,165.745 263.793,165.862 263.605 C 165.978 263.416,165.841 263.310,165.556 263.369 C 165.270 263.429,165.063 263.173,165.093 262.797 C 165.122 262.424,164.999 262.209,164.819 262.320 C 164.361 262.603,163.577 261.017,163.909 260.478 C 164.090 260.187,164.007 260.145,163.666 260.355 C 163.287 260.589,163.217 260.496,163.406 260.005 C 163.579 259.553,163.515 259.426,163.210 259.614 C 162.905 259.803,162.842 259.675,163.015 259.223 C 163.157 258.854,163.112 258.652,162.914 258.774 C 162.450 259.061,161.973 257.568,162.340 256.974 C 162.527 256.671,162.449 256.626,162.103 256.840 C 161.725 257.074,161.655 256.980,161.843 256.489 C 161.985 256.120,161.941 255.917,161.746 256.038 C 161.293 256.318,160.786 254.076,161.164 253.465 C 161.355 253.157,161.280 253.109,160.937 253.321 C 160.536 253.568,160.481 253.347,160.681 252.307 C 160.831 251.526,160.799 251.190,160.603 251.493 C 159.923 252.549,159.766 247.961,159.766 227.094 C 159.766 215.415,159.634 205.891,159.473 205.930 C 159.312 205.969,158.345 206.066,157.324 206.146 M247.410 217.969 C 247.410 220.225,247.475 221.147,247.554 220.020 C 247.633 218.892,247.633 217.046,247.554 215.918 C 247.475 214.790,247.410 215.713,247.410 217.969 M247.413 229.297 C 247.413 231.768,247.477 232.778,247.554 231.543 C 247.632 230.308,247.632 228.286,247.554 227.051 C 247.477 225.815,247.413 226.826,247.413 229.297 M247.383 235.938 C 247.383 237.119,247.456 237.603,247.545 237.012 C 247.635 236.421,247.635 235.454,247.545 234.863 C 247.456 234.272,247.383 234.756,247.383 235.938 M305.769 253.017 C 306.471 253.104,307.525 253.103,308.112 253.013 C 308.699 252.924,308.125 252.853,306.836 252.855 C 305.547 252.858,305.067 252.931,305.769 253.017 M169.531 268.164 C 170.260 268.916,170.944 269.531,171.052 269.531 C 171.159 269.531,170.651 268.916,169.922 268.164 C 169.193 267.412,168.509 266.797,168.401 266.797 C 168.294 266.797,168.802 267.412,169.531 268.164 M229.004 272.535 C 229.380 272.633,229.995 272.633,230.371 272.535 C 230.747 272.437,230.439 272.356,229.688 272.356 C 228.936 272.356,228.628 272.437,229.004 272.535 M157.227 298.047 C 158.285 299.121,159.238 300.000,159.346 300.000 C 159.453 300.000,158.675 299.121,157.617 298.047 C 156.559 296.973,155.606 296.094,155.498 296.094 C 155.391 296.094,156.168 296.973,157.227 298.047 M278.885 313.574 L 277.539 315.039 279.004 313.693 C 279.810 312.953,280.469 312.293,280.469 312.228 C 280.469 311.930,280.138 312.211,278.885 313.574 M306.738 313.551 C 307.114 313.649,307.729 313.649,308.105 313.551 C 308.481 313.452,308.174 313.372,307.422 313.372 C 306.670 313.372,306.362 313.452,306.738 313.551 M243.275 315.523 C 244.410 315.602,246.168 315.601,247.181 315.521 C 248.194 315.441,247.266 315.376,245.117 315.377 C 242.969 315.378,242.140 315.444,243.275 315.523 M252.447 320.202 C 253.041 320.292,253.919 320.290,254.400 320.197 C 254.880 320.104,254.395 320.031,253.320 320.034 C 252.246 320.037,251.853 320.112,252.447 320.202 M155.402 374.902 C 180.825 374.958,222.309 374.958,247.590 374.902 C 272.871 374.847,252.070 374.801,201.367 374.801 C 150.664 374.801,129.980 374.847,155.402 374.902 " stroke="none" fill="#97a2a4" fill-rule="evenodd"></path><path id="path6" d="M75.868 159.983 C 75.391 160.318,75.000 160.472,75.000 160.326 C 75.000 160.180,74.738 160.278,74.418 160.543 C 74.098 160.809,73.921 161.162,74.023 161.328 C 74.126 161.494,73.974 161.826,73.686 162.065 C 73.256 162.422,73.645 164.430,75.869 173.340 C 78.888 185.434,85.335 212.312,85.742 214.500 C 85.998 215.875,86.051 215.912,87.689 215.867 C 88.615 215.841,89.301 215.703,89.214 215.559 C 89.002 215.209,91.287 214.724,91.763 215.018 C 92.406 215.416,91.629 212.012,84.151 181.685 C 81.481 170.859,79.297 161.746,79.297 161.433 C 79.297 161.120,78.947 160.773,78.520 160.661 C 78.093 160.549,77.829 160.319,77.935 160.148 C 78.040 159.978,77.747 159.938,77.283 160.059 C 76.706 160.210,76.528 160.137,76.720 159.827 C 77.093 159.223,76.905 159.257,75.868 159.983 " stroke="none" fill="#fdb213" fill-rule="evenodd"></path><path id="path7" d="M81.487 149.381 C 81.617 149.722,81.896 150.000,82.106 150.000 C 82.619 150.000,82.298 149.112,81.714 148.918 C 81.428 148.822,81.341 149.001,81.487 149.381 M79.368 153.600 C 78.795 154.174,78.772 154.688,79.320 154.688 C 79.547 154.688,79.634 154.527,79.513 154.330 C 79.391 154.134,79.513 153.894,79.783 153.798 C 80.053 153.701,80.174 153.514,80.052 153.380 C 79.930 153.247,79.623 153.346,79.368 153.600 M71.844 154.536 C 71.324 155.096,70.561 155.682,70.148 155.838 C 69.735 155.994,69.566 156.226,69.772 156.353 C 70.206 156.621,73.355 154.094,73.016 153.749 C 72.891 153.622,72.364 153.977,71.844 154.536 M83.638 158.538 C 81.763 160.905,81.386 161.020,78.404 160.125 L 75.825 159.351 73.764 161.316 C 71.392 163.579,70.711 163.694,67.956 162.298 C 65.496 161.052,64.296 155.113,76.807 206.113 L 79.792 218.281 82.376 217.580 C 83.798 217.194,88.037 216.051,91.797 215.039 C 95.557 214.028,98.683 213.154,98.743 213.098 C 98.987 212.871,92.001 184.369,85.775 160.192 L 84.930 156.907 83.638 158.538 M78.418 160.589 C 78.901 160.770,79.297 161.162,79.297 161.460 C 79.297 161.758,81.481 170.859,84.151 181.685 C 88.764 200.392,91.603 212.211,91.871 213.817 C 91.995 214.566,90.596 215.177,87.371 215.782 C 86.065 216.027,86.020 215.993,85.754 214.560 C 85.337 212.323,78.927 185.591,75.875 173.366 L 73.176 162.553 74.568 161.161 C 75.984 159.745,76.111 159.726,78.418 160.589 " stroke="none" fill="#ffde2c" fill-rule="evenodd"></path><path id="path8" d="M74.841 143.417 C 75.091 143.822,73.523 144.240,72.990 143.910 C 72.726 143.747,72.640 143.799,72.785 144.033 C 72.990 144.365,70.731 145.240,66.974 146.285 C 66.750 146.348,66.276 148.044,65.922 150.055 C 65.232 153.971,65.174 155.162,65.687 154.845 C 65.864 154.735,66.979 154.951,68.165 155.325 L 70.321 156.005 71.612 154.753 C 72.322 154.065,73.038 153.637,73.203 153.802 C 73.368 153.967,73.444 153.842,73.372 153.525 C 73.292 153.168,73.593 152.895,74.161 152.809 C 75.294 152.637,77.047 153.047,76.813 153.429 C 76.719 153.584,77.246 153.743,77.985 153.782 C 79.183 153.845,79.446 153.664,80.411 152.114 C 81.007 151.157,81.633 150.510,81.804 150.675 C 81.974 150.841,81.839 150.314,81.503 149.505 C 81.168 148.695,80.886 147.904,80.876 147.747 C 80.867 147.590,80.669 147.461,80.437 147.461 C 79.833 147.461,78.885 146.053,79.174 145.585 C 79.308 145.369,79.227 145.310,78.993 145.454 C 78.509 145.753,77.268 144.188,77.584 143.677 C 77.699 143.492,77.648 143.365,77.470 143.396 C 77.293 143.427,77.061 143.417,76.953 143.374 C 76.383 143.146,74.694 143.181,74.841 143.417 M152.440 189.406 C 148.865 190.641,148.828 190.719,148.828 196.953 C 148.828 203.161,148.998 203.527,152.644 205.191 C 160.465 208.759,168.717 202.619,166.708 194.727 L 166.211 192.773 164.063 192.535 C 161.453 192.245,159.268 191.364,157.347 189.826 C 155.675 188.488,155.213 188.448,152.440 189.406 M231.787 190.070 C 230.266 191.280,226.646 192.578,224.795 192.578 C 221.615 192.578,221.277 199.628,224.282 203.273 C 227.370 207.020,235.018 207.200,238.770 203.615 C 240.367 202.088,240.436 192.050,238.857 190.901 C 236.244 188.999,233.534 188.681,231.787 190.070 M190.753 203.118 C 186.059 204.115,185.445 205.653,188.623 208.444 C 193.030 212.314,203.876 210.029,203.904 205.224 C 203.913 203.606,195.100 202.195,190.753 203.118 " stroke="none" fill="#ff8c7c" fill-rule="evenodd"></path></g></svg>